# xmcd
#
# Track frame offsets:
#	150
#	17034
#	36312
#	52691
#	68616
#	85619
#	100198
#	116908
#	142918
#	160563
#	177415
#	195632
#	226423
#
# Disc length: 3766 seconds
#
# Revision: 2
# Processed by: cddbd v1.5.1PL0 Copyright (c) Steve Scherf et al.
# Submitted via: EasyCDDAExtractor 8.0.1.1
#
DISCID=9c0eb40d
DTITLE=Катя Лель - Жара Жара
DYEAR=2004
DGENRE=Pop
TTITLE0=Мой Мармеладный (Я не права)
TTITLE1=Долетай
TTITLE2=Стоять бояться
TTITLE3=Падаем вниз
TTITLE4=Прости меня
TTITLE5=Муси-Пуси
TTITLE6=Белым мелом
TTITLE7=Небо на двоих
TTITLE8=Я звезда твоя
TTITLE9=Я не верю тебе
TTITLE10=Отпусти
TTITLE11=Не зови
TTITLE12=CDROM
EXTD=Подюссер Макс Фадеев\nСтудия "Монолит"
EXTT0=
EXTT1=
EXTT2=
EXTT3=
EXTT4=
EXTT5=
EXTT6=
EXTT7=
EXTT8=
EXTT9=
EXTT10=
EXTT11=
EXTT12=
PLAYORDER=
